<?xml version="1.0" encoding="UTF-8"?>
<svg xmlns="http://www.w3.org/2000/svg" xmlns:xlink="http://www.w3.org/1999/xlink" width="20pt" height="20pt" viewBox="0 0 20 20" version="1.1">
<g  id="surface1">
<path style=" stroke:none;fill-rule:nonzero;fill:#ffffff;fill-opacity:1;" d="M 20 8.449219 L 19.929688 10.402344 C 19.863281 10.765625 19.65625 11.125 19.289062 11.054688 L 11.210938 11.679688 L 10.320312 19.167969 C 10.253906 19.527344 9.953125 19.820312 9.585938 19.839844 L 7.449219 20 C 7.105469 20.019531 6.828125 19.75 6.894531 19.390625 L 7.769531 11.953125 L 0.644531 12.492188 C 0.277344 12.472656 0 12.246094 0 11.886719 L 0.0703125 9.933594 C 0.09375 9.574219 0.367188 9.234375 0.710938 9.257812 L 8.253906 8.695312 L 9.195312 0.832031 C 9.21875 0.472656 9.5625 0.160156 9.90625 0.160156 L 12.070312 0 C 12.414062 -0.0195312 12.667969 0.25 12.597656 0.585938 L 11.695312 8.425781 L 19.378906 7.84375 C 19.722656 7.867188 20 8.226562 20 8.585938 Z M 20 8.449219 "/>
</g>
</svg>
