<?xml version="1.0" encoding="UTF-8"?>
<svg xmlns="http://www.w3.org/2000/svg" xmlns:xlink="http://www.w3.org/1999/xlink" width="10pt" height="10pt" viewBox="0 0 10 10" version="1.1">
<g id="surface1">
<path style=" stroke:none;fill-rule:nonzero;fill:rgb(0%,0%,0%);fill-opacity:1;" d="M 10 4.226562 L 9.964844 5.203125 C 9.929688 5.382812 9.828125 5.5625 9.644531 5.527344 L 5.605469 5.839844 L 5.160156 9.582031 C 5.125 9.761719 4.976562 9.910156 4.792969 9.921875 L 3.722656 10 C 3.550781 10.011719 3.414062 9.875 3.449219 9.695312 L 3.886719 5.976562 L 0.320312 6.246094 C 0.136719 6.234375 0 6.125 0 5.945312 L 0.0351562 4.964844 C 0.046875 4.785156 0.183594 4.617188 0.355469 4.628906 L 4.125 4.347656 L 4.597656 0.417969 C 4.609375 0.238281 4.78125 0.078125 4.953125 0.078125 L 6.035156 0 C 6.207031 -0.0117188 6.332031 0.125 6.300781 0.292969 L 5.847656 4.210938 L 9.691406 3.921875 C 9.863281 3.933594 10 4.113281 10 4.292969 Z M 10 4.226562 "/>
</g>
</svg>
