<?xml version="1.0" encoding="UTF-8"?>
<svg xmlns="http://www.w3.org/2000/svg" xmlns:xlink="http://www.w3.org/1999/xlink" width="11pt" height="11pt" viewBox="0 0 11 11" version="1.1">
<g id="surface1">
<path style=" stroke:none;fill-rule:nonzero;fill:rgb(0%,0%,0%);fill-opacity:1;" d="M 11 4.648438 L 10.960938 5.722656 C 10.925781 5.921875 10.808594 6.117188 10.609375 6.082031 L 6.167969 6.421875 L 5.675781 10.542969 C 5.640625 10.738281 5.476562 10.898438 5.273438 10.914062 L 4.097656 11 C 3.90625 11.011719 3.753906 10.863281 3.792969 10.664062 L 4.273438 6.574219 L 0.355469 6.871094 C 0.152344 6.859375 0 6.734375 0 6.539062 L 0.0390625 5.464844 C 0.0507812 5.265625 0.203125 5.078125 0.390625 5.09375 L 4.539062 4.78125 L 5.058594 0.457031 C 5.070312 0.261719 5.257812 0.0859375 5.449219 0.0859375 L 6.636719 0 C 6.828125 -0.0117188 6.964844 0.136719 6.929688 0.320312 L 6.429688 4.632812 L 10.660156 4.3125 C 10.847656 4.324219 11 4.523438 11 4.722656 Z M 11 4.648438 "/>
</g>
</svg>
