<?xml version="1.0" encoding="UTF-8"?>
<svg xmlns="http://www.w3.org/2000/svg" xmlns:xlink="http://www.w3.org/1999/xlink" width="40pt" height="40pt" viewBox="0 0 40 40" version="1.1">
<g id="surface1">
<path style=" stroke:none;fill-rule:nonzero;fill:rgb(0%,0%,0%);fill-opacity:1;" d="M 40 16.898438 L 39.863281 20.808594 C 39.722656 21.527344 39.3125 22.246094 38.574219 22.113281 L 22.421875 23.359375 L 20.644531 38.335938 C 20.503906 39.054688 19.90625 39.636719 19.171875 39.683594 L 14.898438 39.996094 C 14.207031 40.042969 13.65625 39.503906 13.792969 38.785156 L 15.539062 23.910156 L 1.289062 24.988281 C 0.550781 24.941406 0 24.492188 0 23.773438 L 0.136719 19.867188 C 0.183594 19.148438 0.734375 18.472656 1.425781 18.515625 L 16.503906 17.394531 L 18.390625 1.664062 C 18.4375 0.945312 19.125 0.316406 19.816406 0.316406 L 24.136719 0.00390625 C 24.828125 -0.0429688 25.332031 0.496094 25.195312 1.171875 L 23.386719 16.847656 L 38.757812 15.6875 C 39.449219 15.730469 40 16.449219 40 17.167969 Z M 40 16.898438 "/>
</g>
</svg>
