<?xml version="1.0" encoding="UTF-8"?>
<svg xmlns="http://www.w3.org/2000/svg" xmlns:xlink="http://www.w3.org/1999/xlink" width="50pt" height="50pt" viewBox="0 0 50 50" version="1.1">
<g id="surface1">
<path style=" stroke:none;fill-rule:nonzero;fill:rgb(0%,0%,0%);fill-opacity:1;" d="M 50 21.125 L 49.828125 26.011719 C 49.65625 26.910156 49.136719 27.808594 48.21875 27.640625 L 28.027344 29.195312 L 25.804688 47.917969 C 25.632812 48.816406 24.882812 49.546875 23.964844 49.601562 L 18.621094 49.996094 C 17.757812 50.054688 17.070312 49.378906 17.242188 48.480469 L 19.425781 29.886719 L 1.609375 31.234375 C 0.691406 31.179688 0 30.617188 0 29.71875 L 0.171875 24.832031 C 0.230469 23.933594 0.917969 23.089844 1.78125 23.144531 L 20.632812 21.742188 L 22.988281 2.082031 C 23.046875 1.183594 23.90625 0.398438 24.769531 0.398438 L 30.171875 0.00390625 C 31.035156 -0.0546875 31.667969 0.621094 31.496094 1.464844 L 29.234375 21.0625 L 48.449219 19.609375 C 49.308594 19.664062 50 20.5625 50 21.460938 Z M 50 21.125 "/>
</g>
</svg>
