<?xml version="1.0" encoding="UTF-8"?>
<svg xmlns="http://www.w3.org/2000/svg" xmlns:xlink="http://www.w3.org/1999/xlink" width="25pt" height="25pt" viewBox="0 0 25 25" version="1.1">
<g id="surface1">
<path style=" stroke:none;fill-rule:nonzero;fill:rgb(0%,0%,0%);fill-opacity:1;" d="M 25 10.5625 L 24.914062 13.003906 C 24.828125 13.457031 24.570312 13.90625 24.109375 13.820312 L 14.015625 14.597656 L 12.902344 23.960938 C 12.816406 24.40625 12.441406 24.773438 11.984375 24.800781 L 9.308594 25 C 8.878906 25.027344 8.535156 24.691406 8.621094 24.242188 L 9.710938 14.941406 L 0.804688 15.617188 C 0.34375 15.589844 0 15.308594 0 14.859375 L 0.0859375 12.414062 C 0.113281 11.964844 0.460938 11.546875 0.890625 11.574219 L 10.316406 10.871094 L 11.496094 1.042969 C 11.523438 0.589844 11.953125 0.199219 12.386719 0.199219 L 15.085938 0 C 15.515625 -0.0273438 15.832031 0.3125 15.746094 0.730469 L 14.617188 10.53125 L 24.222656 9.804688 C 24.65625 9.832031 25 10.28125 25 10.730469 Z M 25 10.5625 "/>
</g>
</svg>
