<?xml version="1.0" encoding="UTF-8"?>
<svg xmlns="http://www.w3.org/2000/svg" xmlns:xlink="http://www.w3.org/1999/xlink" width="30pt" height="30pt" viewBox="0 0 30 30" version="1.1">
<g id="surface1">
<path style=" stroke:none;fill-rule:nonzero;fill:rgb(0%,0%,0%);fill-opacity:1;" d="M 30 12.675781 L 29.898438 15.605469 C 29.792969 16.144531 29.484375 16.683594 28.929688 16.582031 L 16.816406 17.519531 L 15.484375 28.75 C 15.378906 29.289062 14.929688 29.726562 14.378906 29.761719 L 11.171875 30 C 10.65625 30.03125 10.242188 29.628906 10.34375 29.089844 L 11.65625 17.933594 L 0.964844 18.742188 C 0.414062 18.707031 0 18.371094 0 17.832031 L 0.101562 14.898438 C 0.136719 14.359375 0.550781 13.855469 1.070312 13.886719 L 12.378906 13.042969 L 13.792969 1.25 C 13.828125 0.710938 14.34375 0.238281 14.863281 0.238281 L 18.105469 0.00390625 C 18.621094 -0.03125 19 0.371094 18.898438 0.878906 L 17.539062 12.636719 L 29.070312 11.765625 C 29.585938 11.796875 30 12.335938 30 12.875 Z M 30 12.675781 "/>
</g>
</svg>
